<svg xmlns="http://www.w3.org/2000/svg" width="200" height="200" viewBox="0 0 200 200">
  <defs>
    <linearGradient id="bgGrad" x1="0%" y1="0%" x2="100%" y2="100%">
      <stop offset="0%" style="stop-color:#c9a227;stop-opacity:1" />
      <stop offset="100%" style="stop-color:#e6b82e;stop-opacity:1" />
    </linearGradient>
  </defs>
  <circle cx="100" cy="100" r="100" fill="url(#bgGrad)"/>
  <!-- Face -->
  <circle cx="100" cy="85" r="45" fill="#f5d0c5"/>
  <!-- Hair -->
  <path d="M55 70 Q55 40 100 35 Q145 40 145 70 Q140 55 100 50 Q60 55 55 70" fill="#4a3728"/>
  <ellipse cx="60" cy="75" rx="15" ry="25" fill="#4a3728"/>
  <ellipse cx="140" cy="75" rx="15" ry="25" fill="#4a3728"/>
  <!-- Eyes -->
  <ellipse cx="80" cy="85" rx="8" ry="10" fill="white"/>
  <ellipse cx="120" cy="85" rx="8" ry="10" fill="white"/>
  <circle cx="82" cy="87" r="5" fill="#4a3728"/>
  <circle cx="122" cy="87" r="5" fill="#4a3728"/>
  <!-- Smile -->
  <path d="M85 105 Q100 120 115 105" fill="none" stroke="#c4785a" stroke-width="3" stroke-linecap="round"/>
  <!-- Body/Shoulders -->
  <ellipse cx="100" cy="175" rx="50" ry="35" fill="#1a365d"/>
</svg>
